<?xml version="1.0" encoding="UTF-8"?>
<!DOCTYPE svg PUBLIC "-//W3C//DTD SVG 1.1//EN" "http://www.w3.org/Graphics/SVG/1.1/DTD/svg11.dtd">
<!-- Creator: CorelDRAW 2019 (64-Bit) -->
<svg xmlns="http://www.w3.org/2000/svg" xml:space="preserve" width="210mm" height="297mm" version="1.1" style="shape-rendering:geometricPrecision; text-rendering:geometricPrecision; image-rendering:optimizeQuality; fill-rule:evenodd; clip-rule:evenodd"
viewBox="0 0 21000 29700"
 xmlns:xlink="http://www.w3.org/1999/xlink"
 enable-background="new 0 0 512 512">
 <defs>
  <style type="text/css">
   <![CDATA[
    .fil0 {fill:#FEFEFE}
   ]]>
  </style>
 </defs>
 <g id="Слой_x0020_1">
  <metadata id="CorelCorpID_0Corel-Layer"/>
  <path class="fil0" d="M7903.53 24599.37l183.07 -2043.77c-1442.38,134.27 -2413.95,8.35 -3089.13,-930.61l-1668.16 -2505.12c2539.06,357.21 2270.47,2745.4 4235.46,1970.32 910.15,-358.99 570.17,-375.71 947.06,-1353.62 -797.69,-472.91 -6148.47,-1073.16 -3639.82,-7350.86 399.58,-1000.05 163.58,-1728.26 397.5,-3142.27 1626.75,132.95 1519.83,524.93 2552.58,754.54l5837.86 -187.9c2559.16,-1035.9 1435.96,-775.35 1930.41,-187.73 729.94,868.1 -7.71,1344.91 468.12,2543.19 2278.88,5738.45 -1390.65,6356.57 -3530.48,7571.03 668.95,1969.43 152.14,3328.39 603.79,4829.1 2390.04,495.67 7848.07,-4247.71 7061.21,-10736.96 -1405.29,-11590.11 -17718.82,-11651.74 -19357.44,-259.31 -907.81,6311.4 4267.26,11414.93 7067.97,11029.97z"/>
 </g>
</svg>
