<?xml version="1.0" encoding="UTF-8"?>
<!DOCTYPE svg PUBLIC "-//W3C//DTD SVG 1.1//EN" "http://www.w3.org/Graphics/SVG/1.1/DTD/svg11.dtd">
<!-- Creator: CorelDRAW 2019 (64-Bit) -->
<svg xmlns="http://www.w3.org/2000/svg" xml:space="preserve" width="210mm" height="297mm" version="1.1" style="shape-rendering:geometricPrecision; text-rendering:geometricPrecision; image-rendering:optimizeQuality; fill-rule:evenodd; clip-rule:evenodd"
viewBox="0 0 21000 29700"
 xmlns:xlink="http://www.w3.org/1999/xlink"
 enable-background="new 0 0 512 512">
 <defs>
  <style type="text/css">
   <![CDATA[
    .str0 {stroke:#FEFEFE;stroke-width:20;stroke-miterlimit:22.9256}
    .fil0 {fill:#FEFEFE}
   ]]>
  </style>
 </defs>
 <g id="Слой_x0020_1">
  <metadata id="CorelCorpID_0Corel-Layer"/>
  <path class="fil0 str0" d="M16581.56 17209.19c-134.17,2406.02 -1084.77,3803.42 -3445.54,3938.41l1852.96 262.43c13.94,1.72 55.06,3.45 68.01,4.45 12.4,0.96 52.93,-2.27 65.06,-1.63l534.57 91.26c882.32,265.71 422.3,-51.86 804.58,327.17 500.81,496.51 -354.11,295.14 -50.79,718.81 424.3,-198.55 889.95,-783.6 1250.92,-1113.13 694.76,-634.27 670.32,-732 1116.89,-1457.09 625.12,-1014.95 1169.45,-2318.94 1313.89,-3716.38l-292.55 -774.59c-386.59,78.62 -1174.86,-428.21 -2008.29,-793.01 -909.63,-398.14 -695.45,-90.95 -836.89,-556.79 -178.87,-589.05 47.93,-840.83 -225.39,-1368.92l-147.43 4439.01zm-15482.09 459.71c600.04,2824.68 3486.61,5507.73 5834.02,6322.58 1568.63,544.56 3449.35,813.49 5272.96,485.91 1552.37,-278.85 3445.81,-930.37 4203.96,-1927.3 -303.32,-423.67 551.6,-222.3 50.79,-718.81 -382.28,-379.03 77.74,-61.46 -804.58,-327.17l-534.57 -91.26c-12.13,-0.64 -52.66,2.59 -65.06,1.63 -12.95,-1 -54.07,-2.73 -68.01,-4.45l-1852.96 -262.43c-1859.68,16.33 -3888.1,180.49 -5736.29,-33.44 -2006.98,-232.26 -2438.01,-1027.14 -3020.1,-2628.05 -911.08,-123.61 74.42,50.37 -804.81,-459.52 -452.38,-262.38 -292.95,-171.84 -928.07,-249.96 -556.56,-68.43 -486.45,41.4 -730.02,-193.31 -15.31,-14.75 -47.3,-52.05 -62.06,-69.39 -427.44,-500.15 -101.91,182.35 -303.68,-497.55 -41.3,41.54 -85.1,96.68 -113.72,133.94l-337.8 518.58zm0 0l337.8 -518.58c28.62,-37.26 72.42,-92.4 113.72,-133.94 201.77,679.9 -123.76,-2.6 303.68,497.55 14.76,17.34 46.75,54.64 62.06,69.39 243.57,234.71 173.46,124.88 730.02,193.31 635.12,78.12 475.69,-12.42 928.07,249.96 879.23,509.89 -106.27,335.91 804.81,459.52 -370.33,-1303.03 -210.81,-4495.74 -127.67,-5985.63 122.22,-2189.32 828.48,-3107.36 2652.04,-3560.6l-2645.72 -809.8c-489.05,-31.44 -484.14,-179.94 -542.71,-308.38 -2367.12,1902.09 -3669.65,5727.94 -2616.1,9847.2zm14392.55 -3454.05l-108.64 765.94 -1147.78 -24.47c-44.71,-35.17 -91.91,-81.31 -125.17,-116.07l-223.67 -228.98c-512.22,-616.9 -139.25,-560.89 -555.65,-747.93 599.95,852.98 96.73,2316.44 -302.41,2947.85 -454.83,719.53 -1421.74,1375.92 -2731.54,1353.44 -1262.42,-21.7 -2067.23,-748.47 -2527.51,-1422.87 -864.24,-1266.28 -525.08,-1964.52 -212.86,-3327.66 -50.88,-16.1 -183.6,-34.44 -213.58,-46.45l-160.29 -74.75c-952.79,-557.84 -130.12,-450.6 -1589.22,-494.55 -22.44,-562.8 75.56,-447.51 -177.55,-737.28 -191.09,1366.36 -147.8,4247.15 -6.5,5667.61 222.31,2235.04 1504.67,2259.15 3752.71,2329.22 6158.24,191.95 6394.81,298.87 6329.66,-5843.05zm-5669.01 -1176.87c-2599.93,827.23 -1499.94,4601.84 1128.43,3938.36 2538.19,-640.74 1551.01,-4790.88 -1128.43,-3938.36zm-4406.86 -976.91c253.11,289.77 155.11,174.48 177.55,737.28 1459.1,43.95 636.43,-63.29 1589.22,494.55l160.29 74.75c29.98,12.01 162.7,30.35 213.58,46.45 604.36,-553.88 312.49,-601.06 1144.56,-1097.2 599.18,-357.29 1106.71,-558.07 1896.85,-510.39 1412.89,85.22 2320.65,993.88 2732.91,2056.83 416.4,187.04 43.43,131.03 555.65,747.93l223.67 228.98c33.26,34.76 80.46,80.9 125.17,116.07l1147.78 24.47 108.64 -765.94c-39.44,-3632.98 -279.69,-4218.17 -3924.41,-4290.14 -1205.03,-23.8 -2735.46,-59.28 -3897.6,41.36 -1612.25,139.63 -1981.17,596.92 -2253.86,2095zm-1700.58 -4239.37c58.57,128.44 53.66,276.94 542.71,308.38l2645.72 809.8c2001.53,-228.44 6809.89,-640.01 8258.12,554.38 1871.5,1543.49 1558.05,4729.92 1419.44,7714.93l147.43 -4439.01c273.32,528.09 46.52,779.87 225.39,1368.92 141.44,465.84 -72.74,158.65 836.89,556.79 833.43,364.8 1621.7,871.63 2008.29,793.01l292.55 774.59c545.79,-1820.29 -267.61,-4722 -1059.92,-6137.91 -865.69,-1547.13 -2297.12,-3019.96 -3839.85,-3884.63 -3774.39,-2115.43 -9251.84,-1192.8 -11476.77,1580.75z"/>
 </g>
</svg>
