<?xml version="1.0" encoding="UTF-8"?>
<!DOCTYPE svg PUBLIC "-//W3C//DTD SVG 1.1//EN" "http://www.w3.org/Graphics/SVG/1.1/DTD/svg11.dtd">
<!-- Creator: CorelDRAW 2019 (64-Bit) -->
<svg xmlns="http://www.w3.org/2000/svg" xml:space="preserve" width="210mm" height="297mm" version="1.1" style="shape-rendering:geometricPrecision; text-rendering:geometricPrecision; image-rendering:optimizeQuality; fill-rule:evenodd; clip-rule:evenodd"
viewBox="0 0 21000 29700"
 xmlns:xlink="http://www.w3.org/1999/xlink"
 enable-background="new 0 0 512 512">
 <defs>
  <style type="text/css">
   <![CDATA[
    .fil0 {fill:white}
   ]]>
  </style>
 </defs>
 <g id="Слой_x0020_1">
  <metadata id="CorelCorpID_0Corel-Layer"/>
  <path class="fil0" d="M8220.95 12057.8c718.33,-567.77 2160.64,-459.68 3031.35,-177.53 184.21,1022.58 -89.94,2248.19 186.6,3189.39 720.49,-99.01 961.93,-687.73 1290.66,-1243.56 343.78,-581.25 595.21,-1139.58 837.05,-1744.34 755.48,-140.18 2071.76,-187.5 2809.37,0 163.35,1314.54 -1689.52,2506.28 -1946.41,3594.09 378.95,963.43 2003.75,1551.75 1970.63,2850.66 -535.55,215.92 -2269.59,330.2 -2869.6,20.22 -598,-308.92 -1015.06,-1170.53 -1663.23,-1445.13 -731.4,325.19 -379.65,756.12 -639.26,1417 -784.19,499.53 -2205.98,76.15 -2872.91,-245.01 -2011.9,-968.85 -4265.3,-5259.24 -4226.31,-6184.18 682.53,-170.32 1752.68,-139.26 2453.03,-31.86 490.51,875.7 1119.34,2932.59 2193.09,3012.11 214.86,-881.97 478.87,-2473.06 -554.06,-3011.86zm2243.28 -6977.65l356.15 0c2299.51,43.07 4651.77,929.73 6650.45,2937.17 5157.05,5179.65 2554.53,13276.48 -2678.79,15616.14 -4000.51,1788.55 -8098.16,1154.51 -11245.22,-1981.37 -2021.69,-2014.5 -2816.67,-4143.04 -2816.67,-7139.18 0,-5219.28 4688.37,-9336.94 9734.08,-9432.76z"/>
 </g>
</svg>
