<?xml version="1.0" encoding="UTF-8"?>
<!DOCTYPE svg PUBLIC "-//W3C//DTD SVG 1.1//EN" "http://www.w3.org/Graphics/SVG/1.1/DTD/svg11.dtd">
<!-- Creator: CorelDRAW 2019 (64-Bit) -->
<svg xmlns="http://www.w3.org/2000/svg" xml:space="preserve" width="210mm" height="120mm" version="1.1" style="shape-rendering:geometricPrecision; text-rendering:geometricPrecision; image-rendering:optimizeQuality; fill-rule:evenodd; clip-rule:evenodd"
viewBox="0 0 21000 12000"
 xmlns:xlink="http://www.w3.org/1999/xlink">
 <defs>
  <style type="text/css">
   <![CDATA[
    .fil0 {fill:white}
   ]]>
  </style>
 </defs>
 <g id="Слой_x0020_1">
  <metadata id="CorelCorpID_0Corel-Layer"/>
  <path class="fil0" d="M6484.64 3028.1c1541.81,0 1134.84,1595.47 1134.84,2946.46 0,1679.75 308.61,2936.24 -908.77,3085.67 -1487.28,182.64 -1223.04,-105.99 -1218.56,-753.59l1.42 -3998.45c9.13,-968.73 -238.35,-712.83 -734.87,-1270.1l1725.94 -9.99zm-4478.52 -517.93c138.96,257.78 435.22,479.6 640.2,641.86 381.96,302.48 283.75,352.68 280.92,956.69l-4.8 6333.51c4.41,363.14 -20.54,314.28 156.67,537.43 109.45,137.79 170.12,227.1 305.78,359.77 1265.85,86.39 2802.94,9.12 4099.09,10.38 1126.26,1.18 894.84,3.94 2102.93,-940.24 159.89,-124.96 459.93,-320.42 594.72,-471.26l4.1 -7028.56c2.44,-1031.21 204.35,-618.33 -1138.62,-1630.73 -278.08,-209.62 -560.57,-534.6 -963.53,-534.6l-4863.46 0c-278.95,0 -229.61,45.01 -327.82,173.5l-886.18 1592.25z"/>
  <path class="fil0" d="M11214.1 3043.13l-26.76 6795.48c336.55,292.96 660.75,481.89 1014.21,745.73 277.46,207.1 777.12,671.6 1145.15,671.6l4130.64 0c79.16,-23.06 811.04,-887.29 811.04,-1284.03l-16.37 -2314.29 -2374.57 0.63c-37.29,341.98 33.52,1231.86 -75.54,1330.22 -299.8,107.33 -1399.15,93.32 -1656.85,-99.15 -380.77,-284.53 -382.97,-926.63 -381.71,-1515.69 2.51,-1166.31 66.09,-2550.98 -9.37,-3691.8 -212.77,-224.26 -583.39,-405.87 -705.91,-622.5l2743.69 0 15.11 1472.18 2265.11 59.8 562.3 -3078.27c-220.87,-303.5 -453.55,-463.08 -633.59,-733.29l-1432.36 -4.88 -280.83 674.67c-375.66,-182.95 -911.52,-736.76 -1295.21,-736.76 -2231.82,0 -1668.73,-207.89 -3059.62,868.95 -753.51,583.32 -735.18,259.2 -738.56,1461.4z"/>
 </g>
</svg>
